<?xml version="1.0" standalone="no"?>
<!DOCTYPE svg PUBLIC "-//W3C//DTD SVG 20010904//EN"
 "http://www.w3.org/TR/2001/REC-SVG-20010904/DTD/svg10.dtd">
<svg version="1.0" xmlns="http://www.w3.org/2000/svg"
 width="800.000000pt" height="800.000000pt" viewBox="0 0 800.000000 800.000000"
 preserveAspectRatio="xMidYMid meet">
<metadata>
Created by potrace 1.14, written by Peter Selinger 2001-2017
</metadata>
<g transform="translate(0.000000,800.000000) scale(0.100000,-0.100000)"
fill="#000000" stroke="none">
<path d="M0 4000 l0 -4000 4000 0 4000 0 0 4000 0 4000 -4000 0 -4000 0 0
-4000z m3530 3466 c58 -8 156 -29 218 -46 93 -26 135 -32 240 -34 127 -4 359
-43 387 -66 6 -5 15 -7 18 -3 4 3 7 2 7 -3 0 -6 15 -15 33 -22 36 -13 176 -90
217 -119 46 -34 186 -158 236 -210 62 -66 72 -78 109 -133 16 -25 33 -47 36
-50 3 -3 9 -12 12 -20 4 -8 16 -28 27 -45 50 -77 136 -286 154 -375 3 -14 12
-49 20 -78 8 -29 17 -70 20 -90 3 -20 8 -55 12 -78 l6 -41 -38 -6 c-22 -4 -71
-7 -110 -7 l-72 0 -6 48 c-27 186 -140 468 -259 640 -67 100 -261 293 -358
359 -170 116 -372 195 -584 229 -159 26 -449 14 -620 -25 -161 -37 -258 -69
-366 -122 -198 -97 -357 -223 -484 -385 -145 -184 -240 -390 -292 -634 -28
-130 -24 -487 6 -670 12 -74 31 -191 41 -260 30 -197 182 -1176 265 -1715 73
-473 99 -639 131 -848 140 -926 165 -1037 280 -1269 82 -165 170 -285 298
-405 91 -86 206 -172 295 -219 30 -16 72 -39 95 -51 125 -67 322 -111 526
-120 169 -6 293 4 450 38 194 42 195 34 4 -30 -214 -72 -401 -102 -649 -102
-297 -1 -535 67 -722 203 -28 21 -54 38 -59 38 -12 0 -144 143 -144 157 0 7
-6 16 -14 20 -23 13 -87 143 -70 143 8 0 14 5 14 11 0 5 -5 7 -10 4 -6 -3 -10
-2 -10 3 0 5 -12 22 -26 38 -15 16 -23 23 -19 15 6 -9 4 -12 -3 -7 -7 4 -12
13 -12 21 0 7 -18 33 -41 57 -76 80 -213 305 -260 426 -5 12 -13 32 -19 45
-38 87 -96 347 -134 592 -31 203 -87 560 -136 865 -11 69 -34 220 -51 335 -42
287 -93 622 -138 910 -11 66 -27 167 -36 225 -8 58 -24 161 -35 230 -11 69
-29 186 -40 260 -29 191 -49 317 -70 455 -66 417 -59 661 28 930 105 323 300
578 580 760 295 190 740 282 1122 231z m207 -1101 c95 -30 152 -65 225 -138
91 -92 155 -235 177 -397 6 -41 22 -147 36 -235 14 -88 25 -166 25 -172 0 -8
-12 -13 -28 -13 -48 0 -60 -24 -68 -142 l-7 -108 -66 1 c-56 0 -62 2 -43 11
13 7 21 17 18 25 -3 7 1 13 8 13 7 0 20 7 27 16 12 15 8 16 -44 11 -52 -4 -58
-3 -62 17 -2 11 -31 199 -64 417 -64 418 -84 501 -143 586 -16 24 -39 48 -51
54 -12 7 -69 13 -127 14 -102 2 -107 1 -179 -34 -51 -25 -76 -44 -82 -61 -5
-14 -14 -34 -20 -45 -44 -89 -44 -246 2 -495 6 -30 14 -77 19 -105 5 -27 16
-89 24 -137 9 -48 16 -101 16 -120 0 -25 8 -40 37 -65 20 -18 46 -33 58 -33
12 0 35 -5 51 -10 l29 -10 0 -95 c0 -52 -3 -95 -6 -95 -13 0 -37 -66 -40 -110
-4 -49 0 -52 67 -36 l31 7 1 -103 1 -103 -108 -3 c-132 -4 -136 -1 -126 90 3
35 8 133 11 219 l5 156 -23 7 c-13 3 -50 6 -82 6 -50 0 -57 -2 -44 -12 11 -8
21 -42 28 -93 21 -145 19 -140 55 -147 18 -3 21 -14 28 -113 5 -61 10 -116 13
-122 2 -9 27 -13 79 -13 73 0 75 -1 75 -25 0 -17 -14 -37 -40 -61 -39 -35 -40
-39 -38 -93 2 -38 8 -58 18 -63 8 -4 52 -7 98 -7 l82 -1 0 130 0 130 135 0
134 0 3 123 3 122 131 3 132 3 7 239 8 239 131 3 131 3 3 117 3 117 142 3 142
3 3 123 3 122 193 0 c106 0 288 -3 405 -7 l211 -6 -2 -235 -3 -235 -132 2
-133 2 0 -130 0 -131 -135 0 -134 0 -3 -122 -3 -123 -132 -3 -133 -3 0 -103
c0 -58 -3 -111 -6 -120 -5 -14 -28 -16 -145 -16 l-139 0 0 -125 0 -125 -135 0
-134 0 -3 -117 -3 -118 -137 -3 -138 -3 0 -130 0 -130 -132 3 -133 3 -3 128
-3 127 136 0 135 0 0 120 0 120 -130 0 -129 0 -3 -117 -3 -118 -79 -7 c-84 -8
-119 -16 -73 -17 l29 -1 -8 -102 c-4 -57 -7 -108 -7 -115 0 -7 -23 -16 -50
-20 -45 -7 -50 -11 -51 -35 -1 -14 1 -26 4 -25 3 1 19 -6 35 -15 17 -9 39 -18
50 -20 17 -3 21 -13 25 -78 l5 -75 35 -3 c19 -2 40 -8 46 -13 12 -10 29 -135
25 -185 -1 -17 4 -36 11 -42 9 -7 104 -14 256 -19 147 -5 243 -12 244 -18 1
-5 -7 -12 -17 -14 -10 -2 -25 -9 -33 -17 -7 -8 -19 -14 -26 -14 -7 0 -28 -8
-47 -17 -27 -14 -56 -17 -139 -15 -62 1 -118 -3 -137 -10 -37 -14 -37 -11 -13
-153 7 -38 13 -76 13 -82 0 -7 3 -13 7 -13 4 0 10 -26 14 -57 3 -32 11 -83 17
-113 6 -30 16 -95 24 -145 7 -49 18 -115 24 -145 26 -128 61 -370 62 -430 1
-36 6 -76 11 -90 5 -14 14 -50 20 -80 15 -84 16 -91 34 -150 9 -30 16 -70 15
-89 l-1 -34 55 6 c87 9 191 65 261 140 95 102 143 218 151 367 4 83 -3 147
-61 513 -36 230 -66 426 -66 435 0 15 15 17 140 16 77 -1 142 -3 145 -5 2 -3
20 -108 39 -234 20 -127 54 -346 76 -488 46 -293 50 -402 21 -514 -39 -149
-143 -280 -274 -342 -64 -31 -204 -61 -281 -61 -62 0 -150 26 -229 67 -55 29
-83 53 -130 110 -134 163 -130 149 -262 1018 -42 275 -72 469 -124 790 -11 66
-25 161 -31 210 -6 50 -18 126 -26 169 -8 43 -17 113 -20 155 -3 42 -9 85 -14
96 -9 23 -55 304 -105 650 -19 132 -42 281 -50 330 -17 107 -46 291 -75 471
-36 231 -22 367 53 509 42 78 144 178 222 215 57 27 152 46 270 53 28 2 51 4
52 5 1 1 37 -9 80 -23z m1548 -1332 c-4 -10 -11 -31 -15 -48 -7 -27 -8 -25 -9
18 -1 37 2 47 15 47 11 0 14 -5 9 -17z m-1444 -35 c0 -18 2 -41 4 -50 3 -16
-7 -18 -97 -18 l-101 0 64 33 c35 18 75 40 89 50 34 24 40 22 41 -15z m1294
-138 c11 -5 14 -9 7 -9 -7 -1 -23 -10 -35 -21 -12 -12 -32 -23 -44 -26 -14 -4
-23 -14 -23 -25 0 -10 -9 -23 -20 -29 -19 -10 -20 -8 -20 55 l0 65 58 -1 c31
0 66 -4 77 -9z m-251 -233 c-29 -17 -98 -70 -106 -82 -4 -5 -5 -18 -2 -27 4
-13 0 -18 -15 -18 -11 0 -23 -4 -26 -10 -16 -27 -25 -3 -25 70 l0 80 98 0 c81
-1 94 -3 76 -13z m696 -68 c0 -6 7 -9 15 -5 9 3 37 -7 63 -23 26 -16 58 -32
72 -36 14 -4 32 -13 40 -20 8 -7 43 -27 78 -44 35 -18 65 -38 68 -45 3 -8 15
-17 27 -20 13 -3 31 -13 42 -24 11 -10 45 -38 76 -63 59 -48 75 -62 127 -109
35 -32 55 -36 98 -20 28 11 47 4 25 -9 -7 -5 -11 -16 -9 -25 3 -14 -8 -17 -77
-19 -54 -2 -91 -9 -114 -21 l-33 -18 -47 45 c-152 148 -362 310 -458 354 -37
18 -52 29 -40 31 13 3 17 13 17 43 0 28 4 39 15 39 8 0 15 -5 15 -11z m-180
-33 c0 -7 -14 -16 -31 -20 -55 -11 -65 -5 -24 15 48 22 55 23 55 5z m-856
-146 l69 0 -52 -41 c-38 -31 -50 -46 -46 -60 5 -14 -2 -20 -34 -29 -23 -6 -42
-16 -43 -23 0 -7 -4 24 -8 68 -4 44 -5 84 -2 88 2 5 14 6 26 3 11 -3 52 -6 90
-6z m526 6 c0 -2 -27 -22 -59 -45 -65 -45 -280 -254 -378 -366 -49 -57 -63
-68 -74 -57 -9 8 -49 12 -126 12 -62 0 -113 4 -113 8 0 10 90 32 131 32 17 0
45 11 62 24 18 13 51 33 75 45 23 12 42 27 42 33 0 6 2 9 5 6 3 -2 31 21 63
51 31 31 76 71 99 89 23 18 54 44 69 57 46 40 204 126 204 111z m-725 -255 c3
-5 -4 -13 -16 -16 -29 -10 -80 -56 -73 -67 6 -9 -34 -47 -50 -48 -5 0 -17 -7
-26 -15 -12 -11 -17 -12 -18 -3 0 7 -4 43 -8 80 -6 60 -5 66 12 71 35 9 173 7
179 -2z m1983 -87 c132 -66 194 -228 142 -368 -27 -70 -89 -142 -145 -167 -52
-24 -138 -24 -190 0 -47 21 -120 98 -140 146 -8 18 -19 52 -24 75 l-9 42 41
-8 c78 -16 173 -11 196 10 42 38 25 102 -55 209 -24 31 -44 59 -44 62 0 10 68
23 121 24 40 1 69 -6 107 -25z m-2198 -246 c-1 -66 -5 -109 -13 -118 -10 -13
-32 -15 -129 -12 l-118 4 0 114 0 114 130 0 130 0 0 -102z m390 40 c-17 -24
-36 -50 -43 -59 -8 -10 -36 -18 -77 -23 -36 -3 -78 -9 -95 -12 -19 -3 -26 -2
-20 4 19 18 109 64 133 68 30 6 110 43 118 55 3 5 7 9 10 9 3 0 -9 -19 -26
-42z m1410 -87 c0 -16 4 -41 10 -55 14 -38 19 -97 8 -90 -6 4 -5 -2 1 -13 13
-25 17 -85 7 -101 -4 -7 -14 -12 -22 -12 -8 0 -14 -4 -14 -10 0 -5 -7 -10 -15
-10 -8 0 -15 -4 -15 -10 0 -5 -13 -10 -30 -10 -20 0 -30 -5 -30 -15 0 -19 -34
-19 -53 -1 -8 8 -18 46 -22 83 -3 37 -13 99 -21 138 -11 57 -12 72 -1 82 22
23 110 52 155 53 40 0 42 -1 42 -29z m-990 -35 c112 -19 130 -23 225 -53 217
-70 467 -223 664 -409 66 -62 80 -81 86 -115 9 -53 -29 -132 -97 -200 -68 -68
-119 -93 -193 -93 -56 -1 -67 3 -160 58 -323 191 -400 228 -557 270 -124 33
-176 38 -435 40 l-220 1 -35 27 c-61 47 -86 125 -90 293 -3 87 -1 95 21 119
27 29 100 56 181 66 104 14 519 11 610 -4z m1678 -96 c-12 -10 -57 -36 -98
-56 -41 -21 -79 -40 -85 -43 -5 -3 6 15 26 40 20 24 45 45 55 47 19 3 77 26
104 41 25 14 24 -8 -2 -29z m-368 -177 c0 -19 -170 -85 -231 -90 -60 -6 -63
-5 -46 11 9 10 22 14 28 11 5 -4 18 0 27 8 9 8 34 18 55 22 21 4 48 16 60 26
22 18 107 27 107 12z m-4410 -94 c0 -5 5 -7 10 -4 6 3 10 -2 10 -12 0 -15 -8
-18 -49 -18 -27 0 -53 3 -57 8 -4 4 4 7 18 7 14 0 31 7 38 15 14 17 30 20 30
4z m4154 -380 c-16 -17 -61 -46 -101 -66 -87 -43 -109 -63 -94 -90 13 -22 57
-292 71 -432 13 -130 13 -281 0 -392 -18 -159 -102 -437 -141 -469 -3 -3 -12
-22 -20 -42 -7 -21 -16 -38 -20 -38 -4 0 -9 -8 -13 -17 -16 -49 -139 -204
-240 -302 -47 -46 -86 -81 -86 -78 0 4 -19 -12 -42 -33 -24 -22 -46 -40 -50
-40 -4 0 -33 -17 -65 -38 -101 -66 -215 -121 -154 -74 107 81 201 164 257 229
249 285 373 650 358 1048 -5 126 -66 561 -90 644 -7 24 -7 24 47 18 72 -8 121
14 205 95 48 46 80 67 127 84 82 30 86 29 51 -7z m-4072 -299 c10 -11 30 -20
45 -21 16 -1 38 -4 51 -7 22 -7 21 -8 -18 -49 -35 -38 -42 -42 -65 -33 -34 13
-44 12 -25 0 15 -11 12 -10 -67 6 -12 2 -27 14 -34 25 -8 17 -7 23 8 35 17 13
17 13 -3 14 -25 0 -34 31 -34 111 0 40 3 49 18 49 9 0 26 11 36 25 10 14 25
25 33 25 7 0 17 8 21 18 4 9 9 -26 12 -80 4 -73 9 -103 22 -118z"/>
<path d="M3870 4529 l0 -119 130 0 130 0 0 120 0 121 -130 -2 -130 -1 0 -119z
m45 -77 c-3 -3 -11 0 -18 7 -9 10 -8 11 6 5 10 -3 15 -9 12 -12z"/>
</g>
</svg>
